<?xml version="1.0"?>
<svg width="128" height="128" xmlns="http://www.w3.org/2000/svg" xmlns:svg="http://www.w3.org/2000/svg">
 <g class="layer">
  <title>Layer 1</title>
  <path d="m44.44,100.63c-4.23,-3.33 -8.74,-6.52 -11.83,-11.01c-6.49,-7.92 -11.49,-17.1 -14.9,-26.74c-2.07,-6.27 -2.77,-12.99 -5.44,-19.02c-2.78,-4.38 0.48,-9.16 5.27,-10.55c2.13,-0.41 5.89,-2.43 1.36,-0.98c-4.06,2.98 -4.45,-2.71 -0.29,-3.07c2.84,-0.38 3.89,-2.7 2.92,-4.8c-3.05,-1.99 7.4,-4.18 2.14,-7.15c-5.48,-5.91 7.66,-7.05 4.42,-0.33c-0.77,5.16 9.18,-0.95 6.87,5.01c2.35,2.86 8.8,0.65 8.63,4.67c3.42,0.24 4.6,3.11 7.8,3.33c3.33,1.5 9.36,2.69 10.49,6.44c-3.3,2.61 -10.95,-5.4 -11.31,1.84c1,10.69 0.74,21.7 4.65,31.88c1.85,6.16 6.33,11.01 10.38,15.81c3.88,4.7 9.12,8.01 14.48,10.8c4.69,2.21 9.75,3.68 14.87,4.6c2.07,-1.59 5.74,-7.48 8.97,-5c0.16,2.8 -6.42,5.84 -0.31,5.54c3.59,-1.08 6.08,2.77 9.04,-0.71c2.72,3.23 11.32,-2.06 9.38,4.53c-2.62,1.69 -6.44,0.67 -9.07,3c-4.33,-2.16 -7.77,1.93 -12.56,1.42c-5.32,0.95 -10.73,1.34 -16.13,1.34c-8.85,-0.7 -17.89,-0.99 -26.3,-4.07c-4.74,-1.38 -9.37,-4.08 -13.53,-6.78zm7.47,3.24c4.63,2 9.16,4.11 14.23,4.75c8.05,1.12 16.37,2.84 24.45,1.27c-3.66,-1.65 -7.44,0.64 -11.08,-1.18c-4.37,0.94 -9.06,-0.24 -13.5,-0.82c-5.05,-2.25 -10.5,-3.8 -15.23,-6.72c-5.91,-2.16 3.06,2.77 4.65,3.17c3.69,2.1 -4.06,-1.08 -5.16,-1.95c-3.09,-1.74 -3.49,-1.37 -0.31,0.39c0.64,0.37 1.28,0.77 1.95,1.09zm-8.81,-6.23c4.49,1.66 -0.02,-3.16 -2.07,-2.88c-0.91,-1.58 -3.48,-2.58 -1.67,-3.43c-3.26,1.13 -3.42,-4.3 -4.95,-3.53c-3.45,-1.09 -1.34,-4.95 -5.45,-7.32c-0.37,-2.5 -4.08,-4.66 -5.26,-8.43c-0.52,-1.93 -4.19,-7.46 -1.94,-2.31c1.92,4.96 5.29,9.21 8.1,13.45c2.18,4.04 4.76,8.26 8.72,10.78c1.34,1.3 2.63,3.27 4.52,3.67zm-12.93,-14.19c0.16,-0.68 0.82,1.46 0,0zm18.3,16.18c1,-0.44 -1.43,-0.56 0,0zm2.44,0.89c-0.25,-1.23 -1.11,0.69 0,0zm3.05,1.27c1.45,-1.38 -2.24,-0.87 0,0zm5.22,2.91c0.89,-1.3 -2.82,-0.49 0,0zm-10.03,-6.99c2.25,-1.46 -2.91,-0.02 0,0zm2.29,1.14c-0.07,-0.77 -0.82,0.34 0,0zm11.43,7.13c1.84,1.16 10.73,2.54 5.16,0.48c-0.93,0.2 -10.33,-2.66 -5.16,-0.48zm-18.15,-14.13c-0.18,-0.77 -2.85,-0.85 0,0zm5.32,3.1c1.39,-0.96 -2.87,-0.74 0,0zm4.48,2.75c1.98,-0.75 -3.23,-0.75 0,0zm-11.97,-8.21c2.16,1.65 8.7,0.21 3.3,-0.99c-2.45,-1.31 -7.99,-2.2 -4.22,0.79l0.92,0.2zm15,9.16c0.9,-1.53 -3.77,-0.88 0,0zm-4.56,-3.63c5.27,1.49 -4.43,-3.34 -1.3,-0.55l0.7,0.32l0.6,0.23zm9.14,5.28c4.99,0.05 -4.51,-0.68 0,0zm-21.5,-13.7c-0.19,-0.93 -1.23,0.08 0,0zm29.94,18.44c0.14,-1.68 -1.62,1.25 0,0zm-21.42,-13.22c-0.3,-0.88 -1.56,-0.04 0,0zm-8.04,-5.8c2.86,-0.17 -3.93,-1.26 0,0zm-9.54,-6.16c-0.36,-1.38 -3.12,-2.47 0,0zm25.03,15.88c-0.52,-0.6 -0.25,0.13 0,0zm15.58,9.56c-0.05,-0.91 -0.85,0.35 0,0zm-16.96,-10.98c0.28,-1.18 -2.44,-0.36 0,0zm-11.6,-7.36c2.13,-0.23 -3.42,-1.44 0,0zm19.63,12.2c3.32,-1.32 -3.24,-0.64 0,0zm-10.21,-6.93c3.83,0.49 -4.56,-2.61 -0.84,-0.28l0.84,0.28zm13.31,8.19c3.58,-2.14 2.4,5.01 6.07,0.6c3.62,-2.64 -3.13,3.27 1.33,0.47c3.23,-2.16 7.99,1.02 11,2.06c2.16,-0.11 4.27,1.87 6.49,0.67c4.27,-1.15 -8.36,-1.71 -5.05,-3.75c-3.91,1.14 -6.8,-1.36 -8.72,-3.86c-4.39,-1.01 -9.46,-3.25 -11.65,-7.14c-0.89,-1.46 1.29,0.21 -0.77,-2.18c-2.64,-2.35 -3.96,-5.02 -5.73,-7.88c-2.12,-1.13 -2.37,-4.46 -2.58,-0.11c0.02,-2.74 -2.56,-4.59 -3.19,-3.82c-0.01,-2.64 2.76,-1.32 0.82,-3.27c-0.42,-2.74 -1.79,-5.59 -2.2,-8.68c-0.64,-1.49 -0.09,-4.68 -2.19,-1.31c-0.76,3.57 -0.25,-4.38 0.94,-1.76c1.56,-2.67 -0.56,-2.36 -0.65,-1.99c1.02,-2.26 0.64,-5.46 -0.27,-4.24c0.54,-2.39 0.86,-8.8 -0.81,-7.66c1.01,-2.5 1.92,-11.44 -2.47,-8.03c-1.78,0.03 -4.85,0.64 -6.31,1.37c4.56,2.51 -0.46,0.91 -2.32,0.51c-0.24,2.33 -2.08,1.32 -4.38,1.34c3.67,0.45 -1.79,3.75 -3.89,2.47c-2.74,1.31 2.36,4.57 0.05,5.58c0.28,1.52 -4.19,-0.55 -3.84,2.96c-2.65,-1.12 -0.36,4.16 0.96,2.38c4.51,1.22 3.18,4.01 3.29,6.65c-0.74,1.54 -3.63,-3.62 -0.64,-3.38c-2.36,-3.83 -2.61,-1.38 -4.56,0.39c-0.45,0.13 4.99,2.53 1.57,3.72c3.01,0.47 3.1,3.1 3.71,4.76c1.81,1.88 1.44,-2.08 3.6,0.18c-1.37,-2.02 -7.25,-5.68 -2.52,-4.51c-0.03,-2.03 -0.86,-3.67 0.6,-3.63c1.44,-2.6 -1.51,6.42 1.73,3.11c0.9,-0.39 1.12,-2.6 2.73,0.21c2.34,2.3 0.85,3.97 -2.46,1.86c0.59,2.01 4.42,2.72 3.7,5.86c0.76,2.76 1.83,1.74 2.76,1.58c0.73,2.68 1.14,0.71 1.18,-0.57c3.34,0.72 2.56,2.69 3.6,4.07c2.3,1.04 -3.29,-7.04 0.66,-2.43c4.16,3.75 1.56,5.32 -2.17,4.72c2.36,-0.19 3.12,3.19 6.07,3.07c2.69,1.28 4.52,6.2 -0.12,4.15c-1.61,-1.45 -7.31,-3.24 -2.65,-0.48c4.3,1.99 7.71,3.18 11.86,5.68c2.96,2.12 4.25,4.54 5.37,5.02c-2.49,1.19 -7.51,-0.95 -3.78,-1.61c-2.33,-0.42 -4.94,-1.6 -2.71,1.3c1.89,1.58 6.71,1.42 7.58,1.59c-0.73,1.61 -1.99,1.74 0.03,1.86c-2.25,1.22 0.72,1.41 0.93,2.1zm-4.6,-13c-1.37,-1.43 -1.72,-4.11 -0.24,-1.78c0.75,0.3 2.43,4.38 0.24,1.78zm14.99,9.52c0.85,-0.06 0.02,0.65 0,0zm-17.15,-13.03c-0.06,-2.17 0.49,1.67 0,0zm-1.49,-2.01c-1.73,-3.32 2.17,0.95 0,0zm-18.06,-12.46c1.01,-0.27 0.5,1.73 0,0zm14.37,7.79c0.62,-2.33 0.73,1.96 0,0zm-10.15,-7.06c-0.71,-1.29 1.5,1.21 0,0zm8.71,2.79c-1.63,-3.65 1.16,-2 0.36,0.6l-0.36,-0.6zm-15.02,-10.01c-0.73,-1.2 -1.93,-4.72 -1.55,-5.79c0.35,1.75 3.72,7.53 1.65,2.39c-2.28,-4.3 2.73,1.4 3.25,2.47c0.24,1.07 -1.41,-0.29 -0.29,2.21c-2.04,-2.85 -1.2,1.58 -3.06,-1.28zm-4.64,-3.2c0.19,-2.79 1.06,1.91 0,0zm2.08,0.72c1,-2.11 1.69,2.93 0,0zm-5.02,-3.89c-1.73,-1.72 -2.98,-3.3 0.08,-1.07c1.18,0.05 -2.62,-3.6 0.28,-1.16c3.06,0.56 1.51,5.01 -0.36,2.23zm2.64,-0.07c1,-0.99 0.53,0.98 0,0zm1.62,0.52c-1.52,-2.85 1.85,1.2 0,0zm-3.22,-3.08c-5.02,-4.47 6.31,2.34 0.82,0.83l-0.82,-0.83zm14.39,8.36c-2.18,-1.3 -0.58,-9.18 0.16,-3.79c2.11,-0.68 -0.12,2.78 1.46,2.75c-0.24,2.18 -0.95,2.97 -1.62,1.04zm5.33,3.15c0.21,-2.38 0.45,1.62 0,0zm-0.93,-0.92c0.24,-1.01 0.03,1.2 0,0zm-17.81,-12.06c-3.23,-4.45 9.38,4.51 2.07,1.13c-0.77,-0.21 -1.69,-0.28 -2.07,-1.13zm10.26,5.43c-0.31,-3.75 0.68,0.62 0,0zm7.78,5c0.6,-2.14 0.05,1.41 0,0zm-17.54,-12.13c1.92,-0.41 7.95,3.37 2.41,1.08c-0.62,-0.69 -1.93,-0.38 -2.41,-1.08zm16.47,8.21c0.2,-3.84 1.15,-2.29 0.01,0.55l-0.01,-0.55zm-15.05,-9.55c0.78,-1.15 -2.08,-5.18 0.41,-1.45c1.08,0.85 3.11,1.43 1.31,1.79c2.84,2.5 -0.68,0.68 -1.72,-0.34zm14.24,8.35c0.54,-4.37 0.47,2.56 0,0zm-15.87,-12.38c0.6,-0.26 0.32,0.79 0,0zm3.71,2.21c0.96,-2.01 1.77,2.23 0,0zm10.47,5.82c0,-0.77 0.2,1.12 0,0zm-0.6,-1.34c-1.45,-3.59 1.35,1.9 0,0zm-0.89,-2.35c-0.25,-1.48 0.83,1.86 0,0zm1.45,-2.36c-1,-1.76 1.26,-7.75 1.51,-4.03c-1.05,2.89 -0.3,4.51 0.43,0.63c1.36,-3.06 -0.29,6.02 -1.94,3.4zm1.49,-8.91c0.44,-0.53 0.1,0.65 0,0zm-2.49,49.12c-0.59,-0.52 0.07,0.33 0,0zm5.13,2.6c2.86,0.74 2.84,-0.44 0.26,-0.79c-1.39,-1.29 -5.77,-2.66 -1.85,-0.16c0.27,0.65 1.09,0.63 1.59,0.95zm-10.14,-6.74c1.57,1.18 5.93,3.32 2.24,0.45c1.24,-1.44 -2.38,-2.21 -1.18,-3.18c-3.06,-1.87 -2.41,-1.7 -0.27,-1.64c-3.67,-1.64 0.53,-1.52 0.33,-2.36c-1.42,-0.28 -7.03,-2.5 -3.73,0.18c-3.36,-1.71 -0.8,0.64 -1.82,0.39c-3.44,-0.94 3.06,2.62 -0.54,1.73c1.97,1.56 5.3,4 0.83,1.65c-0.57,0.85 3.21,2.14 4.14,2.78zm5.37,3.09c6.53,2.1 -3.2,-2.58 0,0zm27.5,16.65c0.08,-1.3 -0.9,1.11 0,0zm2.82,1.19c1.51,-1.46 0.06,2.33 2.5,-0.36c0.03,-1.92 -0.07,-3.06 -2.8,-0.72c-0.75,0.42 -1.09,2.19 0.3,1.08zm-44.85,-28.17c-0.47,-1.82 -3.25,-1.81 0,0zm3.01,1.98c-1.12,-1.86 -4,-1.68 0,0zm17.17,10.35c1.68,1.49 7.7,1.09 2.03,0.18c-0.83,-1.24 -5.32,-0.94 -2.03,-0.18zm23.6,14.57c2.57,-2.16 -2.5,0.97 0,0zm5.36,3.69c0.02,-0.69 -1.11,0.3 0,0zm0.01,-0.97c2.86,-3.03 -2.77,0.18 0,0zm-56.58,-35.83c-2.43,-3.47 -1.51,-5.03 -3.86,-7.87c-0.45,-2.17 -4.03,-7.09 -1.85,-1.88c1.99,3.05 2.58,7.77 5.71,9.75zm55.68,34.87c5.26,-3.4 -2.15,-1.48 0,0zm4.01,1.57c2.64,-2.26 -1.66,-0.47 0,0zm-53.16,-34.07c0.76,-1.12 -1.94,-0.14 0,0zm52.33,32.99c2.55,-1.64 -0.59,-1.39 -0.46,0.15l0.46,-0.15zm-34.58,-21.79c-0.09,-1.11 -1.35,0.09 0,0zm2.14,1.23c-0.69,-1.38 -1.05,0.21 0,0zm36.53,21.67c3.27,-2.36 -1.98,-0.45 -0.68,0.45l0.68,-0.45zm-1.26,-0.6c2.67,-2.23 -2.8,0.99 0,0zm6.39,4.25c1.79,-1.19 -2.17,-0.38 0,0zm-59.91,-38.56c2.39,0.54 9.56,5.89 5.33,0.37c-2.17,-0.64 -0.87,-5.94 -3.08,-5c1.48,2.48 1.22,3.53 -1.9,1.97c-3.91,-1.91 -2.2,0.94 -1.43,1.73c-1.04,0.25 1.39,0.91 1.08,0.93zm-10.9,-8.61c0.43,-1.77 -3.95,-9.75 -2.07,-4c0.68,1.21 0.61,3.49 2.07,4zm20.01,12.34c-1.23,-1.03 -0.06,-0.15 0,0zm3.03,0.71c0,-1.88 -3.35,-0.77 0,0zm26.3,16.57c-0.5,-1.28 -1.98,-0.02 0,0zm1.26,0.93c-0.18,-0.72 -0.72,0.14 0,0zm10.43,6.56c1,-0.74 -1.25,-0.09 0,0zm-55.59,-35.72c2.87,-1.11 -3.07,-0.79 0,0zm41.59,26.2c-0.04,-1.86 -1.83,0.46 0,0zm-42.72,-28.84c1.84,-0.62 -1.71,-0.41 0,0zm5.34,2.59c-0.03,-0.61 -0.56,0.23 0,0zm65.22,39.99c2.37,-0.48 7.77,1.21 8.64,-0.63c-2.88,-0.07 -9.95,-2.03 -10.28,0.46l0.63,0.1l1.01,0.07zm-63.52,-39.56c0.05,-1.88 -1.46,-0.07 0,0zm-14.05,-9.75c-0.64,-3.58 -2.43,-0.54 0,0zm3.35,0.84c0.04,-1.15 -3.07,-1.03 0,0zm1.91,0.94c-0.55,-0.44 -0.43,0.57 0,0zm12.06,7.73c0.57,-0.52 -1.35,-0.38 0,0zm-13.33,-9.85c-0.33,-2.71 -3.88,-0.4 0,0zm-6.87,-4.46c-0.1,-1.25 -0.67,0.47 0,0zm1.02,-0.77c-0.17,-1.48 -0.88,0.19 0,0zm5.65,3.37c2.39,-0.94 -4.35,-1.94 -0.49,-0.18l0.49,0.18zm75.59,46.69c1.53,-1.4 -1.94,-0.43 0,0zm9.13,4.74c0.61,-1.81 -1.54,0.23 0,0zm-84.15,-54.39c0.26,-1.75 -1.89,0.35 0,0zm-8.03,-5.38c-0.43,-2.47 -0.37,-6.82 3.76,-5.35c-5.51,1.1 3.82,6.85 2.64,2.31c2.32,0.11 4.53,-1.37 3.32,0.88c4.57,-0.5 7.73,-4.46 12.14,-3.91c3.44,-0.46 7.19,-0.8 10.89,-2.18c3.04,-0.22 5.97,-3.5 4.31,-5.44c-4.15,-0.35 -8.5,0.17 -13.08,1.08c-5.08,1.06 -9.7,3.06 -14.83,3.93c-5,0.67 1,1.85 -0.43,2.11c-2.61,0.9 3.11,1.52 -0.34,2.47c-2.13,-0.41 -4.35,-1.14 -3.44,-3.38c-4.79,0.62 -9,2.61 -5.21,7.48l0.27,0zm11.54,-5.88c1.12,-4.14 6.01,3.4 1.84,0.55c-0.5,-0.38 -1.32,-0.68 -1.84,-0.55zm0.22,-2.01c1.62,-1.2 0.86,0.68 0,0zm2.06,0.04c0.15,-1.9 4.71,1.01 0.75,0.68l-0.75,-0.68zm2.81,-1.14c1.03,-1.2 0.3,1.07 0,0zm0.72,-0.48c1.71,-2.06 9.69,-1.31 3.85,-0.2c-1.56,-1.18 -2.76,0.7 -3.85,0.2zm10.42,-1.6c-0.26,-5.62 5.18,1.99 0,0zm2.96,-0.02c1.08,-2.83 4.2,-1.14 0.5,-0.57c0.08,0.3 -0.11,1.46 -0.5,0.57zm-23.86,15.02c3.23,-1.98 -3.43,-1.72 0,0zm2.39,0.66c1.13,-1.2 -2.46,-0.49 0,0zm-7.04,-4.99c1.85,-1.42 -2.18,-0.54 0,0zm95.35,59.65c0.05,-1.65 -1.41,0.74 0,0zm-9.69,-6.61c0.28,-1.9 -1.24,0.16 0,0zm12.36,7.25c2.58,0.01 7.82,-0.8 2.2,-0.8c-0.88,0.13 -5.13,0.11 -2.2,0.8zm-88.88,-56.46c2.09,-0.14 3.27,-2.3 -0.41,-2.18c-5.69,-0.59 5.02,1.95 -0.73,1.22c-0.77,0.51 1.09,1.1 1.14,0.96zm1.84,0.93c-0.22,-1.34 -0.65,0.71 0,0zm2.18,-5.82c0.9,-1.12 -1.26,-0.3 0,0zm-6.95,-11.6c3.73,-1.27 8.82,-2.69 10.58,0.62c-1.79,-2.15 -0.72,-4.28 0.97,-1.12c2.39,3.19 3.59,-1.45 2.03,-2.52c1.77,2.2 3.79,3.24 1.19,0.14c2.83,-3.4 -5.66,0.45 -7.59,0.41c-0.92,0.41 -9.58,2.2 -7.18,2.47zm2.19,-4.18c2.13,-1.6 7.35,0.96 4,-1.59c-0.33,-0.3 -7.35,1.93 -4,1.59zm7.75,0.32c2.49,0.06 -1.07,-3.34 1.89,-1.8c-0.49,-1.59 -3.45,-1.89 -4.9,-2.52c-0.82,1.45 1.66,4.34 3.01,4.32zm-6.39,-7.04c0.86,-1.16 -1.51,0.6 0,0zm3.16,0.76c4.01,-0.53 -1.02,-1.72 -0.81,-0.04l0.81,0.04zm-5.91,-4.62c-2.82,-3.69 5.31,0.62 2.44,-3.24c-2.41,-1.92 -4.73,2.16 -2.44,3.24zm36.21,19.5c1.29,-2.29 -5.34,-3.09 -0.87,-0.81c0.42,0.14 0.32,0.97 0.87,0.81z" fill="#4493f8" id="svg_1"/>
 </g>
</svg>