<?xml version="1.0"?>
<svg width="285" height="285" xmlns="http://www.w3.org/2000/svg" xmlns:svg="http://www.w3.org/2000/svg" clip-rule="evenodd" fill-rule="evenodd" version="1.1" xml:space="preserve">
 <g class="layer">
  <title>Layer 1</title>
  <g id="Layer_x0020_1">
   <metadata id="CorelCorpID_0Corel-Layer"/>
   <rect fill="none" height="285" id="svg_1" rx="9.03" ry="8.12" transform="matrix(1 0 0 1 0 0)" width="285"/>
   <path d="m21.28,143.74c-0.85,-1.52 -0.66,-2.61 0.1,-4.13c31.41,-58.36 78.81,-94.15 138.53,-119.75c2.03,-0.86 5.04,1.52 4.31,3.65c-8.9,25.91 -15.18,51.13 -18.82,78.23c-3.32,24.97 -4.24,50.79 -0.87,77.77c3.56,30.59 10.88,55.99 19.68,83.36c0.98,3.05 -2.14,4.43 -4.51,3.26c-62.19,-30.61 -109.33,-70.65 -138.42,-122.39z" fill="#4493f8" id="svg_2"/>
   <path d="m224.53,198.59c-34.39,-10.79 -65.15,-29.06 -92.4,-53.2c-1.82,-1.62 -1.61,-3.87 0.03,-5.44c27.07,-25.88 57.79,-46.19 91.74,-60.56c2.99,-1.27 5.45,1.2 4.56,4.62c-9.62,36.91 -11.74,73.39 0.13,109.95c0.98,3.05 -1.47,5.44 -4.06,4.63z" fill="#4493f8" fill-opacity="0.64" id="svg_3"/>
   <path d="m224.53,198.59c-22.64,-7.1 -43.71,-17.45 -63.24,-30.58c-1.35,-20.9 -1.47,-30.2 0.73,-53.26c19.19,-14.22 39.86,-26.04 61.88,-35.36c2.99,-1.27 5.45,1.2 4.56,4.62c-9.62,36.91 -11.74,73.39 0.13,109.95c0.98,3.05 -1.47,5.44 -4.06,4.63z" fill="#4493f8" id="svg_4"/>
  </g>
 </g>
</svg>